<svg id="Layer_1" data-name="Layer 1" xmlns="http://www.w3.org/2000/svg" viewBox="0 0 87.08 42.58"><title>logo</title><path d="M18.91,67,31.44,53.86a1.16,1.16,0,0,1,.83-.36h0a1.16,1.16,0,0,1,.83.36l11,11.52L58.76,50,44.09,34.62,10.16,70.2a2.15,2.15,0,0,1-3.06,0,2.35,2.35,0,0,1,0-3.21L43.26,29.07a1.13,1.13,0,0,1,1.66,0l16.9,17.72,5.08-5.33a1.14,1.14,0,0,1,1.66,0L92.91,67a2.35,2.35,0,0,1,0,3.21,2.15,2.15,0,0,1-3.06,0L67.73,47,44.92,70.93a1.13,1.13,0,0,1-1.66,0l-11-11.52L22,70.2a2.15,2.15,0,0,1-3.06,0,2.36,2.36,0,0,1,0-3.21" transform="translate(-6.46 -28.71)"/><path d="M12.57,54.29a2.45,2.45,0,0,1,.84,1.53,1.85,1.85,0,0,1-.61,1.47,2.27,2.27,0,0,1-.51.41,1.45,1.45,0,0,1-.45.18,4.12,4.12,0,0,1-.53.05v.65a2.65,2.65,0,0,0,1.92-.87A2.84,2.84,0,0,0,14,56.45a2.28,2.28,0,0,0,0-1.33,3,3,0,0,0-.79-1.23L8.62,49.5,8.15,50Z" transform="translate(-6.46 -28.71)"/><path d="M15.52,44.82a2.41,2.41,0,0,0-1-.18,3.18,3.18,0,0,0-3.12,3.21,2.49,2.49,0,0,0,.21,1,3.43,3.43,0,0,0,.58.86q.38.43,1.25,1.27t1.31,1.21a3.46,3.46,0,0,0,.88.55,2.41,2.41,0,0,0,1,.18,3,3,0,0,0,1.2-.26,3.14,3.14,0,0,0,1-.71,3.18,3.18,0,0,0,.68-1,3.11,3.11,0,0,0,.22-1.2,2.44,2.44,0,0,0-.21-1,3.6,3.6,0,0,0-.58-.86c-.25-.29-.67-.71-1.25-1.27s-1-1-1.31-1.21A3.5,3.5,0,0,0,15.52,44.82Zm2.84,3.41a3.49,3.49,0,0,1,.54.79,2,2,0,0,1,.18.82,2.3,2.3,0,0,1-.17.91,2.4,2.4,0,0,1-.51.78,2.44,2.44,0,0,1-.77.54,2.33,2.33,0,0,1-.91.2,2,2,0,0,1-.81-.16,3.42,3.42,0,0,1-.81-.52c-.29-.24-.68-.6-1.19-1.1-.34-.33-.63-.62-.86-.86a6.34,6.34,0,0,1-.58-.69,2.41,2.41,0,0,1-.32-.6,1.91,1.91,0,0,1-.1-.61,2.24,2.24,0,0,1,.17-.92,2.5,2.5,0,0,1,1.28-1.31,2.28,2.28,0,0,1,.91-.2,2,2,0,0,1,.82.16A3.37,3.37,0,0,1,16,46c.29.24.68.61,1.19,1.1S18.11,47.94,18.36,48.22Z" transform="translate(-6.46 -28.71)"/><path d="M17.64,40.22l4.12,8.6.51-.53-1-2.06,2.91-3,2.1.95.51-.52-8.71-3.88ZM21,45.65l-2.47-5L23.58,43Z" transform="translate(-6.46 -28.71)"/><path d="M27.38,34.06a3.61,3.61,0,0,0-.88-.55,2.39,2.39,0,0,0-1-.18,3,3,0,0,0-1.19.25,3.19,3.19,0,0,0-1.93,3,2.48,2.48,0,0,0,.21,1,3.62,3.62,0,0,0,.58.86c.25.29.67.71,1.25,1.27s1,1,1.31,1.21a3.43,3.43,0,0,0,.88.55,2.39,2.39,0,0,0,1,.18,3,3,0,0,0,1.19-.26,3.22,3.22,0,0,0,1.7-1.75,3.12,3.12,0,0,0,.22-1.2,2.52,2.52,0,0,0-.21-1,3.59,3.59,0,0,0-.58-.86q-.38-.43-1.25-1.27T27.38,34.06Zm2,2.86a3.43,3.43,0,0,1,.54.79,2,2,0,0,1,.18.82,2.36,2.36,0,0,1-.17.91,2.44,2.44,0,0,1-.51.78,2.41,2.41,0,0,1-.77.54,2.35,2.35,0,0,1-.91.2,1.93,1.93,0,0,1-.81-.16,3.28,3.28,0,0,1-.81-.52c-.29-.24-.68-.6-1.19-1.1-.34-.33-.63-.62-.86-.86a6.59,6.59,0,0,1-.58-.69,2.41,2.41,0,0,1-.32-.6,1.93,1.93,0,0,1-.1-.61,2.25,2.25,0,0,1,.17-.92,2.56,2.56,0,0,1,1.28-1.32,2.32,2.32,0,0,1,.91-.19,2,2,0,0,1,.82.16,3.39,3.39,0,0,1,.81.52q.43.36,1.19,1.1T29.34,36.92Z" transform="translate(-6.46 -28.71)"/><rect x="15.55" y="38.72" width="2.59" height="0.53" transform="translate(-29.29 -4.86) rotate(-45.76)"/></svg>